:FULLY-SPECIFIED
:FORCE-ALL-JOINTS-BE-3DOF
:DEGREES
259
root 9.71038 16.7182 -0.282263 8.25177 -7.54074 1.04112
lfemur -31.7308 9.04226 -27.4202
ltibia 36.0312 0 0
lfoot -12.2797 6.87945 0
ltoes -0.172547 0 0
rfemur -8.05715 -1.83185 15.9294
rtibia 61.1487 0 0
rfoot 5.45119 -8.96497 0
rtoes -15.2345 0 0
lowerback -5.66687 1.15268 -2.40447
upperback -1.95228 1.64242 1.4682
thorax 1.05435 0.829121 2.9658
lowerneck -20.4285 -4.80215 -12.8317
upperneck 18.713 -5.79014 13.2294
head 10.1199 -2.12888 6.02016
lclavicle -3.19546e-14 -2.0276e-14 0
lhumerus -36.703 -8.59092 89.2943
lradius 22.6391 0 0
lwrist -2.00751 0 0
lhand -9.41773 -22.3452 0
lfingers 7.12502 0 0
lthumb 16.5443 6.96948 0
rclavicle -3.19546e-14 -2.0276e-14 0
rhumerus -45.9701 9.67144 -86.016
rradius 39.7113 0 0
rwrist -21.7486 0 0
rhand -31.9309 -24.6003 0
rfingers 7.12502 0 0
rthumb -5.18201 -54.5169 0
260
root 9.73034 16.7423 -0.153324 8.12948 -7.45474 1.09805
lfemur -30.8005 8.9917 -27.5193
ltibia 35.5254 -0 0
lfoot -12.5651 6.84267 0.000798079
ltoes -0.403039 0 0
rfemur -9.35018 -1.9589 15.9982
rtibia 62.4811 -0 0
rfoot 4.00047 -9.74102 -0.0180345
rtoes -14.9675 0 0
lowerback -5.6296 1.01439 -2.40217
upperback -1.8878 1.45665 1.52029
thorax 1.11154 0.734587 3.00708
lowerneck -20.4956 -4.72078 -12.6952
upperneck 18.8701 -5.68001 13.0433
head 10.1606 -2.08637 5.94988
lclavicle -2.27442e-14 -1.05356e-14 0
lhumerus -35.9134 -9.10051 89.3631
lradius 22.8416 -0 0
lwrist -1.63097 0 0
lhand -9.78122 -22.5429 0.00415765
lfingers 7.12502 0 0
lthumb 16.1942 6.79905 0.0036375
rclavicle -2.27442e-14 -1.05356e-14 0
rhumerus -45.9455 9.58112 -85.7715
rradius 39.9017 -0 0
rwrist -21.7476 0 0
rhand -31.8835 -24.2952 -0.00204339
rfingers 7.12502 0 0
rthumb -5.13623 -54.2132 -0.00195562
261
root 9.7503 16.7665 -0.0243847 7.99935 -7.32424 1.13748
lfemur -29.8535 8.91621 -27.5908
ltibia 34.9963 -0 0
lfoot -12.8339 6.77302 0.00161433
ltoes -0.574775 0 0
rfemur -10.5949 -2.06799 16.107
rtibia 63.5925 -0 0
rfoot 2.43866 -10.2939 -0.0209031
rtoes -14.9005 0 0
lowerback -5.583 0.86461 -2.3954
upperback -1.82006 1.25494 1.58175
thorax 1.16805 0.632071 3.0545
lowerneck -20.6054 -4.65478 -12.5261
upperneck 19.0678 -5.59045 12.8159
head 10.2247 -2.0542 5.85658
lclavicle -1.35339e-14 -7.951e-16 0
lhumerus -35.1047 -9.73464 89.4565
lradius 23.0319 -0 0
lwrist -1.18321 0 0
lhand -10.2417 -22.8447 0.00792594
lfingers 7.12502 0 0
lthumb 15.7507 6.53139 0.00692828
rclavicle -1.35339e-14 -7.951e-16 0
rhumerus -45.905 9.40156 -85.4804
rradius 40.1124 -0 0
rwrist -21.7175 0 0
rhand -31.8843 -24.1473 -0.00353229
rfingers 7.12502 0 0
rthumb -5.13708 -54.0656 -0.00336721
262
root 9.77027 16.7906 0.104554 7.86107 -7.16215 1.16782
lfemur -28.8935 8.81806 -27.6453
ltibia 34.4539 -0 0
lfoot -13.0975 6.68989 0.00207652
ltoes -0.700502 0 0
rfemur -11.7989 -2.15445 16.2415
rtibia 64.5074 -0 0
rfoot 0.800957 -10.674 -0.0132483
rtoes -14.9609 0 0
lowerback -5.53113 0.706883 -2.38816
upperback -1.74707 1.04241 1.64743
thorax 1.22799 0.524013 3.10521
lowerneck -20.7435 -4.59756 -12.3423
upperneck 19.2912 -5.51263 12.5716
head 10.3045 -2.02753 5.75338
lclavicle -4.32355e-15 8.94535e-15 0
lhumerus -34.274 -10.4357 89.5497
lradius 23.2081 -0 0
lwrist -0.706435 0 0
lhand -10.749 -23.2014 0.00938029
lfingers 7.12502 0 0
lthumb 15.2621 6.21203 0.00819154
rclavicle -4.32355e-15 8.94535e-15 0
rhumerus -45.8546 9.16774 -85.1639
rradius 40.335 -0 0
rwrist -21.6766 0 0
rhand -31.8977 -24.096 -0.00414656
rfingers 7.12502 0 0
rthumb -5.15001 -54.0144 -0.00393813
263
root 9.79023 16.8148 0.233494 7.71437 -6.98139 1.19752
lfemur -27.9245 8.69982 -27.6931
ltibia 33.9082 -0 0
lfoot -13.3671 6.61264 0.00197003
ltoes -0.792966 0 0
rfemur -12.97 -2.21425 16.3872
rtibia 65.2507 -0 0
rfoot -0.877201 -10.9317 -0.00121998
rtoes -15.076 0 0
lowerback -5.47798 0.54477 -2.38442
upperback -1.66678 0.824152 1.71218
thorax 1.2955 0.412851 3.15639
lowerneck -20.8959 -4.54269 -12.1618
upperneck 19.5255 -5.43794 12.3347
head 10.3923 -2.0016 5.65342
lclavicle 4.8868e-15 1.86858e-14 0
lhumerus -33.4179 -11.1454 89.6189
lradius 23.3682 -0 0
lwrist -0.242841 0 0
lhand -11.2527 -23.5637 0.00782697
lfingers 7.12502 0 0
lthumb 14.7768 5.88649 0.00682286
rclavicle 4.8868e-15 1.86858e-14 0
rhumerus -45.7997 8.9147 -84.8433
rradius 40.5615 -0 0
rwrist -21.643 0 0
rhand -31.8879 -24.0809 -0.00377639
rfingers 7.12502 0 0
rthumb -5.14051 -53.9996 -0.00357418
264
root 9.81019 16.8389 0.362433 7.55898 -6.7948 1.23511
lfemur -26.95 8.5644 -27.7448
ltibia 33.3691 -0 0
lfoot -13.6539 6.56066 0.00123475
ltoes -0.864911 0 0
rfemur -14.1157 -2.24392 16.5298
rtibia 65.847 -0 0
rfoot -2.56025 -11.1164 0.00683564
rtoes -15.1733 0 0
lowerback -5.42757 0.381839 -2.38811
upperback -1.5771 0.605297 1.77081
thorax 1.37471 0.301022 3.20517
lowerneck -21.0481 -4.4839 -12.0023
upperneck 19.756 -5.35813 12.1294
head 10.4802 -1.97168 5.56983
lclavicle 1.40971e-14 2.84262e-14 0
lhumerus -32.5325 -11.8048 89.6422
lradius 23.51 -0 0
lwrist 0.165375 0 0
lhand -11.7027 -23.8826 0.00402898
lfingers 7.12502 0 0
lthumb 14.3434 5.60034 0.00349941
rclavicle 1.40971e-14 2.84262e-14 0
rhumerus -45.7454 8.67758 -84.5396
rradius 40.7833 -0 0
rwrist -21.6349 0 0
rhand -31.819 -24.0414 -0.00234351
rfingers 7.12502 0 0
rthumb -5.07406 -53.9613 -0.00221061
265
root 9.83015 16.8631 0.491372 7.39469 -6.61519 1.28913
lfemur -25.9739 8.41507 -27.8105
ltibia 32.8467 0 0
lfoot -13.9692 6.55332 0
ltoes -0.929085 0 0
rfemur -15.2435 -2.24051 16.6546
rtibia 66.3209 0 0
rfoot -4.21255 -11.2773 0
rtoes -15.1803 0 0
lowerback -5.38387 0.221662 -2.40317
upperback -1.47591 0.390974 1.81817
thorax 1.46978 0.190964 3.24869
lowerneck -21.1861 -4.4151 -11.8819
upperneck 19.9679 -5.26521 11.9802
head 10.5604 -1.93313 5.51573
lclavicle 2.33075e-14 3.81667e-14 0
lhumerus -31.6139 -12.3542 89.5991
lradius 23.6317 0 0
lwrist 0.476016 0 0
lhand -12.0486 -24.1088 0
lfingers 7.12502 0 0
lthumb 14.0102 5.39909 0
rclavicle 2.33075e-14 3.81667e-14 0
rhumerus -45.6959 8.49161 -84.2736
rradius 40.9923 0 0
rwrist -21.6706 0 0
rhand -31.6555 -23.9169 0
rfingers 7.12502 0 0
rthumb -4.91614 -53.8398 0
266
root 9.84732 16.872 0.61742 7.21155 -6.44958 1.36414
lfemur -24.9692 8.24351 -27.8941
ltibia 32.3144 -0 0
lfoot -14.3252 6.6137 -0.00172174
ltoes -0.973386 0 0
rfemur -16.342 -2.18286 16.7606
rtibia 66.6486 -0 0
rfoot -5.90115 -11.3608 -0.0170837
rtoes -15.0504 0 0
lowerback -5.34662 0.0648568 -2.43064
upperback -1.35367 0.182104 1.85161
thorax 1.59015 0.0828483 3.28495
lowerneck -21.3191 -4.33271 -11.8102
upperneck 20.1652 -5.15448 11.9035
head 10.6363 -1.88231 5.50018
lclavicle 2.10215e-14 2.63721e-14 0
lhumerus -30.6439 -12.8013 89.4836
lradius 23.7288 -0 0
lwrist 0.688656 0 0
lhand -12.2842 -24.2354 -0.00245488
lfingers 7.12502 0 0
lthumb 13.7833 5.28909 -0.0021159
rclavicle 2.10215e-14 2.63721e-14 0
rhumerus -45.6432 8.34507 -84.036
rradius 41.1957 -0 0
rwrist -21.7528 0 0
rhand -31.3482 -23.6845 0.00334442
rfingers 7.12502 0 0
rthumb -4.6194 -53.6128 0.00314309
267
root 9.86449 16.881 0.743468 7.00785 -6.28898 1.45408
lfemur -23.9276 8.04587 -27.9893
ltibia 31.7589 -0 0
lfoot -14.7153 6.73092 -0.00337384
ltoes -0.985197 0 0
rfemur -17.4026 -2.06957 16.8573
rtibia 66.8056 -0 0
rfoot -7.66799 -11.3172 -0.0277757
rtoes -14.8326 0 0
lowerback -5.31254 -0.0912977 -2.4676
upperback -1.2101 -0.0252234 1.87459
thorax 1.73439 -0.0252537 3.31575
lowerneck -21.4604 -4.24106 -11.775
upperneck 20.3607 -5.0318 11.8832
head 10.7149 -1.8223 5.5145
lclavicle 1.87355e-14 1.45776e-14 0
lhumerus -29.6213 -13.1934 89.3119
lradius 23.802 -0 0
lwrist 0.836966 0 0
lhand -12.4483 -24.3003 -0.0032992
lfingers 7.12502 0 0
lthumb 13.6251 5.23517 -0.00284582
rclavicle 1.87355e-14 1.45776e-14 0
rhumerus -45.5818 8.20743 -83.8082
rradius 41.4017 -0 0
rwrist -21.8676 0 0
rhand -30.916 -23.3881 0.00655964
rfingers 7.12502 0 0
rthumb -4.20199 -53.3237 0.00616458
268
root 9.88166 16.8899 0.869516 6.7957 -6.12224 1.55167
lfemur -22.8806 7.83208 -28.0905
ltibia 31.2101 -0 0
lfoot -15.1227 6.87341 -0.0041222
ltoes -0.97649 0 0
rfemur -18.4371 -1.92764 16.9466
rtibia 66.8155 -0 0
rfoot -9.43968 -11.2004 -0.0291514
rtoes -14.5969 0 0
lowerback -5.28104 -0.248239 -2.51192
upperback -1.05694 -0.233101 1.89117
thorax 1.89039 -0.134044 3.34397
lowerneck -21.6018 -4.14598 -11.761
upperneck 20.5528 -4.90511 11.8946
head 10.7937 -1.75852 5.54524
lclavicle 1.64494e-14 2.783e-15 0
lhumerus -28.5679 -13.5298 89.0988
lradius 23.8571 -0 0
lwrist 0.929899 0 0
lhand -12.5587 -24.3217 -0.00285759
lfingers 7.12502 0 0
lthumb 13.5187 5.22061 -0.00246782
rclavicle 1.64494e-14 2.783e-15 0
rhumerus -45.5197 8.0858 -83.5969
rradius 41.6031 -0 0
rwrist -22.0079 0 0
rhand -30.4247 -23.0673 0.00780546
rfingers 7.12502 0 0
rthumb -3.72761 -53.0112 0.0073346
269
root 9.89883 16.8988 0.995564 6.58724 -5.93828 1.64962
lfemur -21.8597 7.61175 -28.1917
ltibia 30.6977 -0 0
lfoot -15.5303 7.00962 -0.00361677
ltoes -0.959238 0 0
rfemur -19.4577 -1.78393 17.0312
rtibia 66.7022 -0 0
rfoot -11.1428 -11.0645 -0.0217339
rtoes -14.4136 0 0
lowerback -5.25154 -0.407407 -2.56151
upperback -0.905953 -0.443632 1.90551
thorax 2.04601 -0.244225 3.37252
lowerneck -21.7351 -4.05325 -11.7529
upperneck 20.7396 -4.78218 11.9132
head 10.8702 -1.69636 5.57892
lclavicle 1.41634e-14 -9.01157e-15 0
lhumerus -27.506 -13.8108 88.8596
lradius 23.8996 -0 0
lwrist 0.976406 0 0
lhand -12.633 -24.3179 -0.00169642
lfingers 7.12502 0 0
lthumb 13.4471 5.22865 -0.00146917
rclavicle 1.41634e-14 -9.01157e-15 0
rhumerus -45.465 7.98734 -83.4091
rradius 41.7928 -0 0
rwrist -22.1668 0 0
rhand -29.9405 -22.7616 0.00647057
rfingers 7.12502 0 0
rthumb -3.25998 -52.7138 0.00607964
